<svg id="visual" viewBox="0 0 540 960" width="540" height="960" xmlns="http://www.w3.org/2000/svg" xmlns:xlink="http://www.w3.org/1999/xlink" version="1.1"><rect x="0" y="0" width="540" height="960" fill="#191518"></rect><defs><linearGradient id="grad1_0" x1="0%" y1="0%" x2="100%" y2="100%"><stop offset="30%" stop-color="#191518" stop-opacity="1"></stop><stop offset="70%" stop-color="#191518" stop-opacity="1"></stop></linearGradient></defs><defs><linearGradient id="grad2_0" x1="0%" y1="0%" x2="100%" y2="100%"><stop offset="30%" stop-color="#191518" stop-opacity="1"></stop><stop offset="70%" stop-color="#191518" stop-opacity="1"></stop></linearGradient></defs><g transform="translate(540, 0)"><path d="M0 486C-68 483.7 -136 481.5 -186 449C-235.9 416.5 -267.8 353.8 -304.8 304.8C-341.7 255.7 -383.8 220.3 -414.8 171.8C-445.9 123.3 -465.9 61.7 -486 0L0 0Z" fill="#191518"></path></g><g transform="translate(0, 960)"><path d="M0 -486C67.8 -484.7 135.6 -483.3 186 -449C236.4 -414.7 269.4 -347.4 292.7 -292.7C316.1 -238.1 329.7 -195.9 360.3 -149.2C390.9 -102.6 438.5 -51.3 486 0L0 0Z" fill="#191518"></path></g></svg>