<svg xmlns="http://www.w3.org/2000/svg" xmlns:xlink="http://www.w3.org/1999/xlink" version="1.1" x="0px" y="0px" viewBox="0 0 52 52" enable-background="new 0 0 52 52" xml:space="preserve"><g><path d="M26,7.9c5.6,0,10.6,2.6,13.9,6.6L35.4,19h13V6l-4.3,4.3C39.7,5.2,33.2,2,26,2C12.7,2,2,12.7,2,26h5.9C7.9,16,16,7.9,26,7.9   z"/><path d="M44.1,26L44.1,26c0,10-8.1,18.1-18.1,18.1c-5.6,0-10.6-2.6-13.9-6.6l4.6-4.6h-13v13l4.3-4.3C12.3,46.8,18.8,50,26,50   c13.3,0,24-10.7,24-24v0H44.1z"/><path d="M27,38.3v-2.6c1.8-0.3,3.2-1,4.2-2.1c1-1.1,1.5-2.5,1.5-4.2c0-1.5-0.4-2.7-1.2-3.6c-0.8-0.9-2.3-1.7-4.5-2.3v-5.4   c0.9,0.4,1.4,1.1,1.6,2.2l3.5-0.5c-0.2-1.4-0.8-2.5-1.6-3.3c-0.9-0.8-2-1.3-3.5-1.5v-1.4h-2v1.4c-1.6,0.2-2.8,0.7-3.8,1.8   c-0.9,1-1.4,2.3-1.4,3.8c0,1.5,0.4,2.7,1.3,3.8c0.8,1,2.2,1.8,3.9,2.3v5.7c-0.5-0.2-0.9-0.6-1.3-1.2c-0.4-0.5-0.7-1.2-0.8-1.9   l-3.6,0.4c0.3,1.8,0.9,3.2,1.9,4.2c1,1,2.3,1.6,3.9,1.8v2.5H27z M27,27.3c0.8,0.2,1.4,0.6,1.8,1c0.4,0.4,0.5,1,0.5,1.6   c0,0.7-0.2,1.3-0.6,1.8c-0.4,0.5-1,0.8-1.7,1V27.3z M23.7,21.8c-0.3-0.4-0.4-0.9-0.4-1.4c0-0.5,0.2-1,0.5-1.5   c0.3-0.4,0.7-0.7,1.3-0.9v4.7C24.4,22.6,24,22.2,23.7,21.8z"/></g></svg>